<svg version="1.1" xmlns="http://www.w3.org/2000/svg" viewBox="0 0 681.5864868164062 309.2015380859375" width="1363.1729736328125" height="618.403076171875">
  <!-- svg-source:excalidraw -->
  
  <defs>
    <style class="style-fonts">
      @font-face {
        font-family: "Virgil";
        src: url("https://file%2B.vscode-resource.vscode-cdn.net/Users/seal/.vscode/extensions/pomdtr.excalidraw-editor-3.7.3/public//dist/excalidraw-assets/Virgil.woff2");
      }
      @font-face {
        font-family: "Cascadia";
        src: url("https://file%2B.vscode-resource.vscode-cdn.net/Users/seal/.vscode/extensions/pomdtr.excalidraw-editor-3.7.3/public//dist/excalidraw-assets/Cascadia.woff2");
      }
      @font-face {
        font-family: "Assistant";
        src: url("https://file%2B.vscode-resource.vscode-cdn.net/Users/seal/.vscode/extensions/pomdtr.excalidraw-editor-3.7.3/public//dist/excalidraw-assets/Assistant-Regular.woff2");
      }
    </style>
    
  </defs>
  <rect x="0" y="0" width="681.5864868164062" height="309.2015380859375" fill="#ffffff"></rect><g stroke-linecap="round" transform="translate(18.46185302734375 10) rotate(0 159.5859375 63.66796875)"><path d="M31.83 0 C110.39 1.7, 187.13 0.58, 287.34 0 M31.83 0 C90.97 -0.51, 149.34 -1.35, 287.34 0 M287.34 0 C307.19 -1.71, 319.2 10.02, 319.17 31.83 M287.34 0 C309.05 2.07, 321.4 12.85, 319.17 31.83 M319.17 31.83 C318.31 45.55, 318.32 61.17, 319.17 95.5 M319.17 31.83 C318.98 50.1, 319.17 69.35, 319.17 95.5 M319.17 95.5 C320.2 115.48, 307.49 126.27, 287.34 127.34 M319.17 95.5 C317.79 118.87, 309.51 126.79, 287.34 127.34 M287.34 127.34 C226.92 128.35, 164.76 128.72, 31.83 127.34 M287.34 127.34 C214.85 126.2, 142.07 126.5, 31.83 127.34 M31.83 127.34 C10.83 127.55, -1.63 117.33, 0 95.5 M31.83 127.34 C9.82 125.68, 2.23 115.48, 0 95.5 M0 95.5 C0.87 72.79, -0.24 55.39, 0 31.83 M0 95.5 C0.4 73.9, -0.77 53.29, 0 31.83 M0 31.83 C-1.4 10.1, 10.14 -0.47, 31.83 0 M0 31.83 C0.93 11.06, 11.36 1.35, 31.83 0" stroke="#1e1e1e" stroke-width="2" fill="none"></path></g><g transform="translate(144.71142578125 58.479949951171875) rotate(0 46.567962646484375 10)"><text x="0" y="0" font-family="Virgil, Segoe UI Emoji" font-size="16px" fill="#1e1e1e" text-anchor="start" style="white-space: pre;" direction="ltr" dominant-baseline="text-before-edge">servicefilter</text></g><g stroke-linecap="round" transform="translate(47.96295166015625 84.0892333984375) rotate(0 49.89511108398443 25)"><path d="M12.5 0 C31.91 1.19, 54.38 1.91, 87.29 0 M12.5 0 C38.4 1.04, 61.54 0.01, 87.29 0 M87.29 0 C96.4 1.04, 98.25 4.43, 99.79 12.5 M87.29 0 C96.94 -1.83, 99.68 6.33, 99.79 12.5 M99.79 12.5 C101.34 21.25, 98.36 27.86, 99.79 37.5 M99.79 12.5 C100.53 21.44, 100.72 31.06, 99.79 37.5 M99.79 37.5 C100.19 45.78, 96.15 51.36, 87.29 50 M99.79 37.5 C97.68 46.7, 94.2 49.56, 87.29 50 M87.29 50 C57.3 51.09, 29.16 50.47, 12.5 50 M87.29 50 C59.73 50.84, 31.71 49.52, 12.5 50 M12.5 50 C3.68 50.34, -1.25 45.54, 0 37.5 M12.5 50 C5.27 51.14, -0.74 47.39, 0 37.5 M0 37.5 C1.8 30.56, -0.99 19.81, 0 12.5 M0 37.5 C-0.61 28.46, -0.11 20.54, 0 12.5 M0 12.5 C0.96 6.12, 2.29 -1.15, 12.5 0 M0 12.5 C-0.22 5.67, 4.57 -1.35, 12.5 0" stroke="#1e1e1e" stroke-width="2" fill="none"></path></g><g transform="translate(58.890098571777344 89.0892333984375) rotate(0 38.96796417236328 20)"><text x="38.96796417236328" y="0" font-family="Virgil, Segoe UI Emoji" font-size="16px" fill="#1e1e1e" text-anchor="middle" style="white-space: pre;" direction="ltr" dominant-baseline="text-before-edge">listen</text><text x="38.96796417236328" y="20" font-family="Virgil, Segoe UI Emoji" font-size="16px" fill="#1e1e1e" text-anchor="middle" style="white-space: pre;" direction="ltr" dominant-baseline="text-before-edge">[::1]:50051</text></g><g stroke-linecap="round" transform="translate(427.90032958984375 25.42108154296875) rotate(0 121.84307861328125 57.029510498046875)"><path d="M28.51 0 C88.59 -1.05, 147.81 1.11, 215.17 0 M28.51 0 C79.1 0.69, 129.45 0.74, 215.17 0 M215.17 0 C233.48 -1.26, 242.8 8.91, 243.69 28.51 M215.17 0 C233.48 0.27, 245.17 8.56, 243.69 28.51 M243.69 28.51 C245.23 45.99, 243.93 67.28, 243.69 85.54 M243.69 28.51 C243.7 46.81, 244.27 64.39, 243.69 85.54 M243.69 85.54 C242.81 106.13, 235.49 112.95, 215.17 114.06 M243.69 85.54 C245.14 105.71, 233.29 114.47, 215.17 114.06 M215.17 114.06 C158.8 114.43, 103.67 114.5, 28.51 114.06 M215.17 114.06 C150.61 114.56, 88.32 115.15, 28.51 114.06 M28.51 114.06 C7.66 113.54, -0.77 102.87, 0 85.54 M28.51 114.06 C9.8 115.11, 1.32 104.08, 0 85.54 M0 85.54 C1.73 68.34, -1.23 51.33, 0 28.51 M0 85.54 C0.43 69.8, 0.47 53.66, 0 28.51 M0 28.51 C0.39 10.67, 10.17 -0.32, 28.51 0 M0 28.51 C-1.38 7.63, 8.38 -1.37, 28.51 0" stroke="#1e1e1e" stroke-width="2" fill="none"></path></g><g transform="translate(531.279426574707 72.45059204101562) rotate(0 18.46398162841797 10)"><text x="18.46398162841797" y="0" font-family="Virgil, Segoe UI Emoji" font-size="16px" fill="#1e1e1e" text-anchor="middle" style="white-space: pre;" direction="ltr" dominant-baseline="text-before-edge">redis</text></g><g stroke-linecap="round" transform="translate(433.9866943359375 87.93170166015625) rotate(0 42.83197021484375 25)"><path d="M12.5 0 C27.3 0.49, 43.09 0.53, 73.16 0 M12.5 0 C31.02 -0.21, 48.1 0.65, 73.16 0 M73.16 0 C82.33 1.67, 84.88 2.18, 85.66 12.5 M73.16 0 C79.7 -2.2, 87.54 3.8, 85.66 12.5 M85.66 12.5 C85.66 20.91, 86.65 28.4, 85.66 37.5 M85.66 12.5 C85.65 20.2, 86.2 29.3, 85.66 37.5 M85.66 37.5 C84.35 44.98, 79.67 48.47, 73.16 50 M85.66 37.5 C86.78 44.61, 81.95 49.67, 73.16 50 M73.16 50 C56.87 48.95, 37.63 51.28, 12.5 50 M73.16 50 C52.23 50.48, 28.98 51.01, 12.5 50 M12.5 50 C5.04 48.84, -1.46 46.61, 0 37.5 M12.5 50 C5.57 49.11, 1.19 45.96, 0 37.5 M0 37.5 C-0.47 27.24, 1.74 15.77, 0 12.5 M0 37.5 C0.64 31.93, -0.75 26.04, 0 12.5 M0 12.5 C0.05 3.41, 3.05 0.57, 12.5 0 M0 12.5 C-1.67 2.87, 2.54 0.22, 12.5 0" stroke="#1e1e1e" stroke-width="2" fill="none"></path></g><g transform="translate(455.98667907714844 92.93170166015625) rotate(0 20.831985473632812 20)"><text x="20.831985473632812" y="0" font-family="Virgil, Segoe UI Emoji" font-size="16px" fill="#1e1e1e" text-anchor="middle" style="white-space: pre;" direction="ltr" dominant-baseline="text-before-edge">listen</text><text x="20.831985473632812" y="20" font-family="Virgil, Segoe UI Emoji" font-size="16px" fill="#1e1e1e" text-anchor="middle" style="white-space: pre;" direction="ltr" dominant-baseline="text-before-edge">6379</text></g><g stroke-linecap="round"><g transform="translate(71.85943603515625 256.9171142578125) rotate(0 1.54217529296875 -61.447479248046875)"><path d="M-0.95 0.92 C-0.34 -19.32, 1.8 -101.08, 2.63 -121.79 M0.76 0.36 C1.26 -20.16, 0.94 -102.9, 1.45 -123.34" stroke="#f08c00" stroke-width="2" fill="none"></path></g><g transform="translate(71.85943603515625 256.9171142578125) rotate(0 1.54217529296875 -61.447479248046875)"><path d="M11.46 -95.06 C10.93 -101.97, 9.08 -105.69, 1.45 -123.34 M11.46 -95.06 C9.01 -102.11, 5.17 -110.52, 1.45 -123.34" stroke="#f08c00" stroke-width="2" fill="none"></path></g><g transform="translate(71.85943603515625 256.9171142578125) rotate(0 1.54217529296875 -61.447479248046875)"><path d="M-9.06 -95.24 C-5.18 -101.94, -2.62 -105.63, 1.45 -123.34 M-9.06 -95.24 C-6.1 -102.35, -4.54 -110.72, 1.45 -123.34" stroke="#f08c00" stroke-width="2" fill="none"></path></g></g><mask></mask><g transform="translate(501.60345458984375 36.56854248046875) rotate(0 57.60795593261719 10)"><text x="0" y="0" font-family="Virgil, Segoe UI Emoji" font-size="16px" fill="#1e1e1e" text-anchor="start" style="white-space: pre;" direction="ltr" dominant-baseline="text-before-edge">set hello world</text></g><g stroke-linecap="round"><g transform="translate(115.46966552734375 264.484375) rotate(0 -0.159088134765625 -61.70835876464844)"><path d="M-0.99 -1.17 C-0.96 -21.91, -0.28 -103.48, -0.34 -123.74 M0.69 0.83 C0.61 -19.79, -1.35 -101.45, -1.3 -122.38" stroke="#e03131" stroke-width="2" fill="none"></path></g><g transform="translate(115.46966552734375 264.484375) rotate(0 -0.159088134765625 -61.70835876464844)"><path d="M9.31 -94.31 C4.47 -101.66, 3.15 -110.54, -1.3 -122.38 M9.31 -94.31 C5.07 -104.29, 1.21 -113.81, -1.3 -122.38" stroke="#e03131" stroke-width="2" fill="none"></path></g><g transform="translate(115.46966552734375 264.484375) rotate(0 -0.159088134765625 -61.70835876464844)"><path d="M-11.21 -94.06 C-10.77 -101.3, -6.81 -110.25, -1.3 -122.38 M-11.21 -94.06 C-8.1 -104.22, -4.63 -113.84, -1.3 -122.38" stroke="#e03131" stroke-width="2" fill="none"></path></g></g><mask></mask><g stroke-linecap="round"><g transform="translate(289.94622802734375 91.53125) rotate(0 74 10.0078125)"><path d="M1.15 -1.14 C25.84 2.07, 124.61 15.91, 148.95 19.51 M0.3 0.88 C24.84 4.22, 123.61 17.88, 148.5 20.78" stroke="#e03131" stroke-width="2" fill="none"></path></g><g transform="translate(289.94622802734375 91.53125) rotate(0 74 10.0078125)"><path d="M119.23 27.35 C128.05 26.24, 139.84 20.87, 148.5 20.78 M119.23 27.35 C128.27 24.49, 138.57 22.3, 148.5 20.78" stroke="#e03131" stroke-width="2" fill="none"></path></g><g transform="translate(289.94622802734375 91.53125) rotate(0 74 10.0078125)"><path d="M121.85 6.99 C129.76 13.38, 140.59 15.48, 148.5 20.78 M121.85 6.99 C130.17 10.9, 139.6 15.5, 148.5 20.78" stroke="#e03131" stroke-width="2" fill="none"></path></g></g><mask></mask><g transform="translate(29.41075897216797 175.4949951171875) rotate(0 15.407981872558594 10)"><text x="0" y="0" font-family="Virgil, Segoe UI Emoji" font-size="16px" fill="#1e1e1e" text-anchor="start" style="white-space: pre;" direction="ltr" dominant-baseline="text-before-edge">grpc</text></g><g transform="translate(366.31949615478516 70.40625) rotate(0 18.46398162841797 10)"><text x="0" y="0" font-family="Virgil, Segoe UI Emoji" font-size="16px" fill="#1e1e1e" text-anchor="start" style="white-space: pre;" direction="ltr" dominant-baseline="text-before-edge">redis</text></g><g stroke-linecap="round" transform="translate(130.70404052734375 20.2578125) rotate(0 59.9879150390625 17.5)"><path d="M8.75 0 C35.63 0.09, 65.97 0.31, 111.23 0 M8.75 0 C44.86 -1.27, 78.42 -1.06, 111.23 0 M111.23 0 C115.98 1.88, 118.38 4.59, 119.98 8.75 M111.23 0 C115.56 0.57, 119.9 4.45, 119.98 8.75 M119.98 8.75 C118.95 13.54, 118.9 19.7, 119.98 26.25 M119.98 8.75 C119.99 14.12, 119.83 21.57, 119.98 26.25 M119.98 26.25 C119.17 32.42, 115.19 33.1, 111.23 35 M119.98 26.25 C120.4 31.68, 118.87 33.44, 111.23 35 M111.23 35 C90.3 32.93, 66.08 36.48, 8.75 35 M111.23 35 C75.93 34.74, 41.81 34.48, 8.75 35 M8.75 35 C2.53 35.77, 0.87 32.43, 0 26.25 M8.75 35 C4.27 33.39, -0.65 31.16, 0 26.25 M0 26.25 C1.14 21.67, 0.79 15.91, 0 8.75 M0 26.25 C-0.03 20.83, -0.46 14.24, 0 8.75 M0 8.75 C1.48 0.93, 1.51 -0.98, 8.75 0 M0 8.75 C-1.9 0.85, 3.52 -1.71, 8.75 0" stroke="#1e1e1e" stroke-width="2" fill="none"></path></g><g transform="translate(165.5819854736328 25.2578125) rotate(0 25.109970092773438 12.5)"><text x="25.109970092773438" y="0" font-family="Virgil, Segoe UI Emoji" font-size="20px" fill="#1e1e1e" text-anchor="middle" style="white-space: pre;" direction="ltr" dominant-baseline="text-before-edge">plugin</text></g><g stroke-linecap="round"><g transform="translate(76.28997802734375 76.2734375) rotate(0 26.126708984375 -21.034645080566406)"><path d="M-0.96 -0.54 C7.52 -7.55, 42.31 -34.9, 51.33 -41.66 M0.73 1.79 C9.54 -5.63, 44.87 -36.12, 53.56 -43.57" stroke="#f08c00" stroke-width="2" fill="none"></path></g><g transform="translate(76.28997802734375 76.2734375) rotate(0 26.126708984375 -21.034645080566406)"><path d="M38.88 -17.4 C42.86 -27.68, 49.41 -33.47, 53.56 -43.57 M38.88 -17.4 C44.51 -27.55, 50.29 -38.17, 53.56 -43.57" stroke="#f08c00" stroke-width="2" fill="none"></path></g><g transform="translate(76.28997802734375 76.2734375) rotate(0 26.126708984375 -21.034645080566406)"><path d="M25.5 -32.96 C34.06 -37.86, 45.13 -38.4, 53.56 -43.57 M25.5 -32.96 C36.11 -37.28, 47.01 -41.95, 53.56 -43.57" stroke="#f08c00" stroke-width="2" fill="none"></path></g></g><mask></mask><g stroke-linecap="round"><g transform="translate(118.31341552734375 80.9140625) rotate(0 21.00079345703125 -16.821456909179688)"><path d="M1.08 -0.46 C7.82 -6.23, 34.68 -28.38, 41.31 -33.97 M0.19 -1.75 C7.25 -7.39, 36.49 -27.42, 43.66 -32.6" stroke="#e03131" stroke-width="2" fill="none"></path></g><g transform="translate(118.31341552734375 80.9140625) rotate(0 21.00079345703125 -16.821456909179688)"><path d="M28.26 -10.53 C33.12 -20.05, 39.09 -28.97, 43.66 -32.6 M28.26 -10.53 C32.88 -16.4, 37.05 -23.06, 43.66 -32.6" stroke="#e03131" stroke-width="2" fill="none"></path></g><g transform="translate(118.31341552734375 80.9140625) rotate(0 21.00079345703125 -16.821456909179688)"><path d="M17.68 -25.59 C26.56 -29.59, 36.48 -32.9, 43.66 -32.6 M17.68 -25.59 C25.32 -27.41, 32.38 -29.96, 43.66 -32.6" stroke="#e03131" stroke-width="2" fill="none"></path></g></g><mask></mask><g transform="translate(10 274.2015380859375) rotate(0 39.21996307373047 12.5)"><text x="0" y="0" font-family="Virgil, Segoe UI Emoji" font-size="20px" fill="#f08c00" text-anchor="start" style="white-space: pre;" direction="ltr" dominant-baseline="text-before-edge">SayHello</text></g><g transform="translate(120.140625 267.2479248046875) rotate(0 44.56996154785156 12.5)"><text x="0" y="0" font-family="Virgil, Segoe UI Emoji" font-size="20px" fill="#e03131" text-anchor="start" style="white-space: pre;" direction="ltr" dominant-baseline="text-before-edge">RedisGet</text></g></svg>