<svg version="1.1" xmlns="http://www.w3.org/2000/svg" viewBox="0 0 683.2532348632812 682.5219116210938" width="1366.5064697265625" height="1365.0438232421875">
  <!-- svg-source:excalidraw -->
  
  <defs>
    <style class="style-fonts">
      @font-face {
        font-family: "Virgil";
        src: url("https://file%2B.vscode-resource.vscode-cdn.net/Users/seal/.vscode/extensions/pomdtr.excalidraw-editor-3.7.3/public//dist/excalidraw-assets/Virgil.woff2");
      }
      @font-face {
        font-family: "Cascadia";
        src: url("https://file%2B.vscode-resource.vscode-cdn.net/Users/seal/.vscode/extensions/pomdtr.excalidraw-editor-3.7.3/public//dist/excalidraw-assets/Cascadia.woff2");
      }
      @font-face {
        font-family: "Assistant";
        src: url("https://file%2B.vscode-resource.vscode-cdn.net/Users/seal/.vscode/extensions/pomdtr.excalidraw-editor-3.7.3/public//dist/excalidraw-assets/Assistant-Regular.woff2");
      }
    </style>
    
  </defs>
  <rect x="0" y="0" width="683.2532348632812" height="682.5219116210938" fill="#ffffff"></rect><g stroke-linecap="round" transform="translate(10 10) rotate(0 161.7557373046875 56.648101806640625)"><path d="M28.32 0 C122.71 -1.28, 219.94 -2.28, 295.19 0 M28.32 0 C96.48 -2.64, 165.79 -2.59, 295.19 0 M295.19 0 C315.93 -1.98, 322.9 9.59, 323.51 28.32 M295.19 0 C315.06 1.36, 322.48 9.54, 323.51 28.32 M323.51 28.32 C322.27 46.7, 324.07 69.26, 323.51 84.97 M323.51 28.32 C323.43 44.98, 323.87 60.63, 323.51 84.97 M323.51 84.97 C324.21 102.38, 312.7 111.56, 295.19 113.3 M323.51 84.97 C324.41 103.47, 312.28 111.73, 295.19 113.3 M295.19 113.3 C202.15 113.67, 105.75 114.33, 28.32 113.3 M295.19 113.3 C217.18 112.42, 138.48 112.96, 28.32 113.3 M28.32 113.3 C8.79 111.88, -1.55 103.3, 0 84.97 M28.32 113.3 C9.83 111.22, 0.25 104.24, 0 84.97 M0 84.97 C-1.11 68.85, 0.99 55.35, 0 28.32 M0 84.97 C0.88 65.3, 0.03 44, 0 28.32 M0 28.32 C1.18 10.78, 8.89 1.48, 28.32 0 M0 28.32 C0.66 9.57, 10.56 1.06, 28.32 0" stroke="#1e1e1e" stroke-width="2" fill="none"></path></g><g transform="translate(98.26751708984375 24.728302001953125) rotate(0 80.16991424560547 12.5)"><text x="0" y="0" font-family="Virgil, Segoe UI Emoji" font-size="20px" fill="#1e1e1e" text-anchor="start" style="white-space: pre;" direction="ltr" dominant-baseline="text-before-edge">local-grpc-server</text></g><g stroke-linecap="round" transform="translate(37.53485107421875 71.03363037109375) rotate(0 42.83197021484375 25)"><path d="M12.5 0 C33.38 2.29, 57.66 1.05, 73.16 0 M12.5 0 C32.97 0.69, 53.56 0.33, 73.16 0 M73.16 0 C80.29 -1.49, 84.95 3.39, 85.66 12.5 M73.16 0 C81.8 0.16, 86.13 3.94, 85.66 12.5 M85.66 12.5 C83.72 21.38, 85.03 29.17, 85.66 37.5 M85.66 12.5 C85.69 19.99, 84.93 27.34, 85.66 37.5 M85.66 37.5 C86.99 44.12, 81.06 50.46, 73.16 50 M85.66 37.5 C83.37 45.79, 80.58 51.01, 73.16 50 M73.16 50 C56.59 50.67, 37.31 50.91, 12.5 50 M73.16 50 C49.8 50.21, 25.67 48.77, 12.5 50 M12.5 50 C3.56 50.7, 1.78 45.97, 0 37.5 M12.5 50 C5.94 48.11, -1.76 47.76, 0 37.5 M0 37.5 C0.37 31.66, 0.41 26.33, 0 12.5 M0 37.5 C-0.54 32.1, 0.25 26.73, 0 12.5 M0 12.5 C-1.6 2.33, 3.16 0.94, 12.5 0 M0 12.5 C-1.48 3.24, 4.13 -2.23, 12.5 0" stroke="#1e1e1e" stroke-width="2" fill="none"></path></g><g transform="translate(58.382843017578125 76.03363037109375) rotate(0 21.983978271484375 20)"><text x="21.983978271484375" y="0" font-family="Virgil, Segoe UI Emoji" font-size="16px" fill="#1e1e1e" text-anchor="middle" style="white-space: pre;" direction="ltr" dominant-baseline="text-before-edge">listen</text><text x="21.983978271484375" y="20" font-family="Virgil, Segoe UI Emoji" font-size="16px" fill="#1e1e1e" text-anchor="middle" style="white-space: pre;" direction="ltr" dominant-baseline="text-before-edge">9898</text></g><g stroke-linecap="round" transform="translate(20.12860107421875 199.2904052734375) rotate(0 159.5859375 63.66796875)"><path d="M31.83 0 C110.39 1.7, 187.13 0.58, 287.34 0 M31.83 0 C90.97 -0.51, 149.34 -1.35, 287.34 0 M287.34 0 C307.19 -1.71, 319.2 10.02, 319.17 31.83 M287.34 0 C309.05 2.07, 321.4 12.85, 319.17 31.83 M319.17 31.83 C318.31 45.55, 318.32 61.17, 319.17 95.5 M319.17 31.83 C318.98 50.1, 319.17 69.35, 319.17 95.5 M319.17 95.5 C320.2 115.48, 307.49 126.27, 287.34 127.34 M319.17 95.5 C317.79 118.87, 309.51 126.79, 287.34 127.34 M287.34 127.34 C226.92 128.35, 164.76 128.72, 31.83 127.34 M287.34 127.34 C214.85 126.2, 142.07 126.5, 31.83 127.34 M31.83 127.34 C10.83 127.55, -1.63 117.33, 0 95.5 M31.83 127.34 C9.82 125.68, 2.23 115.48, 0 95.5 M0 95.5 C0.87 72.79, -0.24 55.39, 0 31.83 M0 95.5 C0.4 73.9, -0.77 53.29, 0 31.83 M0 31.83 C-1.4 10.1, 10.14 -0.47, 31.83 0 M0 31.83 C0.93 11.06, 11.36 1.35, 31.83 0" stroke="#1e1e1e" stroke-width="2" fill="none"></path></g><g stroke-linecap="round" transform="translate(21.44110107421875 409.2982177734375) rotate(0 166.518310546875 53.390045166015625)"><path d="M26.7 0 C122.3 0.63, 216.49 2.34, 306.34 0 M26.7 0 C119.18 -0.35, 212.38 -0.9, 306.34 0 M306.34 0 C324.25 -0.66, 334.99 7.32, 333.04 26.7 M306.34 0 C324.74 2.01, 333.8 9.15, 333.04 26.7 M333.04 26.7 C332.78 45.55, 334.15 61.26, 333.04 80.09 M333.04 26.7 C334.21 46.01, 334.03 67.37, 333.04 80.09 M333.04 80.09 C333.79 96.52, 324.77 106.43, 306.34 106.78 M333.04 80.09 C334.96 98.82, 325.97 108.6, 306.34 106.78 M306.34 106.78 C230.67 106.72, 158.4 105.95, 26.7 106.78 M306.34 106.78 C200.47 105.31, 94 106.01, 26.7 106.78 M26.7 106.78 C9.55 108.56, -0.12 98, 0 80.09 M26.7 106.78 C10.23 106.62, 0.51 99.78, 0 80.09 M0 80.09 C-1.94 67.28, -0.49 53.61, 0 26.7 M0 80.09 C0.22 65.11, 1.3 49.46, 0 26.7 M0 26.7 C-1.81 8.59, 7.62 0.03, 26.7 0 M0 26.7 C2.03 8.05, 7.67 -0.2, 26.7 0" stroke="#1e1e1e" stroke-width="2" fill="none"></path></g><g transform="translate(127.47946166992188 452.6882629394531) rotate(0 60.479949951171875 10)"><text x="60.479949951171875" y="0" font-family="Virgil, Segoe UI Emoji" font-size="16px" fill="#1e1e1e" text-anchor="middle" style="white-space: pre;" direction="ltr" dominant-baseline="text-before-edge">local-grpc-client</text></g><g transform="translate(126.6278076171875 215.56198120117188) rotate(0 46.567962646484375 10)"><text x="0" y="0" font-family="Virgil, Segoe UI Emoji" font-size="16px" fill="#1e1e1e" text-anchor="start" style="white-space: pre;" direction="ltr" dominant-baseline="text-before-edge">servicefilter</text></g><g stroke-linecap="round" transform="translate(49.62969970703125 273.379638671875) rotate(0 49.89511108398443 25)"><path d="M12.5 0 C31.91 1.19, 54.38 1.91, 87.29 0 M12.5 0 C38.4 1.04, 61.54 0.01, 87.29 0 M87.29 0 C96.4 1.04, 98.25 4.43, 99.79 12.5 M87.29 0 C96.94 -1.83, 99.68 6.33, 99.79 12.5 M99.79 12.5 C101.34 21.25, 98.36 27.86, 99.79 37.5 M99.79 12.5 C100.53 21.44, 100.72 31.06, 99.79 37.5 M99.79 37.5 C100.19 45.78, 96.15 51.36, 87.29 50 M99.79 37.5 C97.68 46.7, 94.2 49.56, 87.29 50 M87.29 50 C57.3 51.09, 29.16 50.47, 12.5 50 M87.29 50 C59.73 50.84, 31.71 49.52, 12.5 50 M12.5 50 C3.68 50.34, -1.25 45.54, 0 37.5 M12.5 50 C5.27 51.14, -0.74 47.39, 0 37.5 M0 37.5 C1.8 30.56, -0.99 19.81, 0 12.5 M0 37.5 C-0.61 28.46, -0.11 20.54, 0 12.5 M0 12.5 C0.96 6.12, 2.29 -1.15, 12.5 0 M0 12.5 C-0.22 5.67, 4.57 -1.35, 12.5 0" stroke="#1e1e1e" stroke-width="2" fill="none"></path></g><g transform="translate(60.556846618652344 278.379638671875) rotate(0 38.96796417236328 20)"><text x="38.96796417236328" y="0" font-family="Virgil, Segoe UI Emoji" font-size="16px" fill="#1e1e1e" text-anchor="middle" style="white-space: pre;" direction="ltr" dominant-baseline="text-before-edge">listen</text><text x="38.96796417236328" y="20" font-family="Virgil, Segoe UI Emoji" font-size="16px" fill="#1e1e1e" text-anchor="middle" style="white-space: pre;" direction="ltr" dominant-baseline="text-before-edge">[::1]:50051</text></g><g stroke-linecap="round" transform="translate(231.07260131835938 199.78103637695312) rotate(0 49.89511108398443 25)"><path d="M12.5 0 C30.46 2.3, 48.9 -0.22, 87.29 0 M12.5 0 C41.58 0.28, 69.22 0.98, 87.29 0 M87.29 0 C94.97 -1.38, 100.78 3.47, 99.79 12.5 M87.29 0 C97.78 1.55, 97.6 4.69, 99.79 12.5 M99.79 12.5 C100.37 16.13, 98.25 22.78, 99.79 37.5 M99.79 12.5 C100.26 19.84, 99.56 26.62, 99.79 37.5 M99.79 37.5 C98.6 44.23, 95.3 48.45, 87.29 50 M99.79 37.5 C98.54 46.12, 97.43 47.81, 87.29 50 M87.29 50 C68.98 50.01, 49.26 49.18, 12.5 50 M87.29 50 C69.15 50.09, 48.79 49.61, 12.5 50 M12.5 50 C4.36 51.81, -0.08 44.02, 0 37.5 M12.5 50 C2.59 50.45, -1.22 44.37, 0 37.5 M0 37.5 C-1.3 29.06, -0.73 24.85, 0 12.5 M0 37.5 C-0.57 31.99, -0.71 25.21, 0 12.5 M0 12.5 C0.02 2.28, 5.06 0.16, 12.5 0 M0 12.5 C1.98 2.98, 3.37 -2.08, 12.5 0" stroke="#1e1e1e" stroke-width="2" fill="none"></path></g><g transform="translate(238.47174835205078 204.78103637695312) rotate(0 42.49596405029297 20)"><text x="42.49596405029297" y="0" font-family="Virgil, Segoe UI Emoji" font-size="16px" fill="#1e1e1e" text-anchor="middle" style="white-space: pre;" direction="ltr" dominant-baseline="text-before-edge">listen</text><text x="42.49596405029297" y="20" font-family="Virgil, Segoe UI Emoji" font-size="16px" fill="#1e1e1e" text-anchor="middle" style="white-space: pre;" direction="ltr" dominant-baseline="text-before-edge">[::1]:50052</text></g><g stroke-linecap="round" transform="translate(55.8353271484375 460.64093017578125) rotate(0 42.83197021484375 25)"><path d="M12.5 0 C35.29 -0.22, 56 1.48, 73.16 0 M12.5 0 C28.55 0.29, 44.14 0.02, 73.16 0 M73.16 0 C80.61 0.39, 86.39 4.65, 85.66 12.5 M73.16 0 C82.43 0.66, 87.02 2.08, 85.66 12.5 M85.66 12.5 C83.69 19.12, 84.3 25.61, 85.66 37.5 M85.66 12.5 C86.19 20.71, 85.51 28.18, 85.66 37.5 M85.66 37.5 C85.69 44.86, 81.68 49.14, 73.16 50 M85.66 37.5 C86.51 44.52, 82.61 51.88, 73.16 50 M73.16 50 C58.94 52.06, 39.71 51.77, 12.5 50 M73.16 50 C52.88 50.36, 32.37 49.57, 12.5 50 M12.5 50 C2.5 49.15, 1 44.9, 0 37.5 M12.5 50 C5.68 48.48, 1.64 45.83, 0 37.5 M0 37.5 C0.84 32.54, -1.71 25.88, 0 12.5 M0 37.5 C1.21 29.9, 0.39 20.15, 0 12.5 M0 12.5 C-0.19 4.15, 5.4 -0.84, 12.5 0 M0 12.5 C0.01 5.85, 2.48 0.13, 12.5 0" stroke="#1e1e1e" stroke-width="2" fill="none"></path></g><g transform="translate(75.4193115234375 465.64093017578125) rotate(0 23.24798583984375 20)"><text x="23.24798583984375" y="0" font-family="Virgil, Segoe UI Emoji" font-size="16px" fill="#1e1e1e" text-anchor="middle" style="white-space: pre;" direction="ltr" dominant-baseline="text-before-edge">listen</text><text x="23.24798583984375" y="20" font-family="Virgil, Segoe UI Emoji" font-size="16px" fill="#1e1e1e" text-anchor="middle" style="white-space: pre;" direction="ltr" dominant-baseline="text-before-edge">8080</text></g><g stroke-linecap="round" transform="translate(26.247802734375 575.957275390625) rotate(0 168.104736328125 48.282318115234375)"><path d="M24.14 0 C135.15 -0.02, 244.41 1.21, 312.07 0 M24.14 0 C118.76 1.73, 215.53 2.55, 312.07 0 M312.07 0 C330.09 -0.27, 334.23 8.23, 336.21 24.14 M312.07 0 C328.85 -2.03, 336.27 7.74, 336.21 24.14 M336.21 24.14 C335.08 35.21, 336.23 49.54, 336.21 72.42 M336.21 24.14 C336.71 34.96, 335.16 45.73, 336.21 72.42 M336.21 72.42 C335.21 88.47, 327.93 97.98, 312.07 96.56 M336.21 72.42 C337.7 88.55, 327.97 97.96, 312.07 96.56 M312.07 96.56 C228.13 96.4, 142.18 96.02, 24.14 96.56 M312.07 96.56 C240.44 96.63, 168.88 95.93, 24.14 96.56 M24.14 96.56 C6.72 98.47, 0.69 89.5, 0 72.42 M24.14 96.56 C9.44 95.56, -0.32 90.75, 0 72.42 M0 72.42 C1.67 59.62, -0.16 43.27, 0 24.14 M0 72.42 C1.01 57.35, 1.09 39.97, 0 24.14 M0 24.14 C0.41 8.99, 9.97 -1.46, 24.14 0 M0 24.14 C-2.01 6.12, 9.79 -1.45, 24.14 0" stroke="#1e1e1e" stroke-width="2" fill="none"></path></g><g stroke-linecap="round" transform="translate(429.56707763671875 214.71148681640625) rotate(0 121.84307861328125 57.029510498046875)"><path d="M28.51 0 C88.59 -1.05, 147.81 1.11, 215.17 0 M28.51 0 C79.1 0.69, 129.45 0.74, 215.17 0 M215.17 0 C233.48 -1.26, 242.8 8.91, 243.69 28.51 M215.17 0 C233.48 0.27, 245.17 8.56, 243.69 28.51 M243.69 28.51 C245.23 45.99, 243.93 67.28, 243.69 85.54 M243.69 28.51 C243.7 46.81, 244.27 64.39, 243.69 85.54 M243.69 85.54 C242.81 106.13, 235.49 112.95, 215.17 114.06 M243.69 85.54 C245.14 105.71, 233.29 114.47, 215.17 114.06 M215.17 114.06 C158.8 114.43, 103.67 114.5, 28.51 114.06 M215.17 114.06 C150.61 114.56, 88.32 115.15, 28.51 114.06 M28.51 114.06 C7.66 113.54, -0.77 102.87, 0 85.54 M28.51 114.06 C9.8 115.11, 1.32 104.08, 0 85.54 M0 85.54 C1.73 68.34, -1.23 51.33, 0 28.51 M0 85.54 C0.43 69.8, 0.47 53.66, 0 28.51 M0 28.51 C0.39 10.67, 10.17 -0.32, 28.51 0 M0 28.51 C-1.38 7.63, 8.38 -1.37, 28.51 0" stroke="#1e1e1e" stroke-width="2" fill="none"></path></g><g transform="translate(532.946174621582 261.7409973144531) rotate(0 18.46398162841797 10)"><text x="18.46398162841797" y="0" font-family="Virgil, Segoe UI Emoji" font-size="16px" fill="#1e1e1e" text-anchor="middle" style="white-space: pre;" direction="ltr" dominant-baseline="text-before-edge">redis</text></g><g stroke-linecap="round" transform="translate(435.6534423828125 277.22210693359375) rotate(0 42.83197021484375 25)"><path d="M12.5 0 C27.3 0.49, 43.09 0.53, 73.16 0 M12.5 0 C31.02 -0.21, 48.1 0.65, 73.16 0 M73.16 0 C82.33 1.67, 84.88 2.18, 85.66 12.5 M73.16 0 C79.7 -2.2, 87.54 3.8, 85.66 12.5 M85.66 12.5 C85.66 20.91, 86.65 28.4, 85.66 37.5 M85.66 12.5 C85.65 20.2, 86.2 29.3, 85.66 37.5 M85.66 37.5 C84.35 44.98, 79.67 48.47, 73.16 50 M85.66 37.5 C86.78 44.61, 81.95 49.67, 73.16 50 M73.16 50 C56.87 48.95, 37.63 51.28, 12.5 50 M73.16 50 C52.23 50.48, 28.98 51.01, 12.5 50 M12.5 50 C5.04 48.84, -1.46 46.61, 0 37.5 M12.5 50 C5.57 49.11, 1.19 45.96, 0 37.5 M0 37.5 C-0.47 27.24, 1.74 15.77, 0 12.5 M0 37.5 C0.64 31.93, -0.75 26.04, 0 12.5 M0 12.5 C0.05 3.41, 3.05 0.57, 12.5 0 M0 12.5 C-1.67 2.87, 2.54 0.22, 12.5 0" stroke="#1e1e1e" stroke-width="2" fill="none"></path></g><g transform="translate(457.65342712402344 282.22210693359375) rotate(0 20.831985473632812 20)"><text x="20.831985473632812" y="0" font-family="Virgil, Segoe UI Emoji" font-size="16px" fill="#1e1e1e" text-anchor="middle" style="white-space: pre;" direction="ltr" dominant-baseline="text-before-edge">listen</text><text x="20.831985473632812" y="20" font-family="Virgil, Segoe UI Emoji" font-size="16px" fill="#1e1e1e" text-anchor="middle" style="white-space: pre;" direction="ltr" dominant-baseline="text-before-edge">6379</text></g><g transform="translate(70.39422607421875 588.6966552734375) rotate(0 75.20793914794922 10)"><text x="0" y="0" font-family="Virgil, Segoe UI Emoji" font-size="16px" fill="#f08c00" text-anchor="start" style="white-space: pre;" direction="ltr" dominant-baseline="text-before-edge">curl 127.0.0.1:8080</text></g><g stroke-linecap="round"><g transform="translate(90.580078125 586.0901489257812) rotate(0 -4.38775634765625 -37.699066162109375)"><path d="M0.31 -0.57 C-1.19 -13.01, -7.31 -63.14, -8.87 -75.79 M-0.98 1.74 C-2.66 -10.42, -8.37 -61.55, -9.87 -74.46" stroke="#f08c00" stroke-width="2" fill="none"></path></g><g transform="translate(90.580078125 586.0901489257812) rotate(0 -4.38775634765625 -37.699066162109375)"><path d="M3.52 -47.61 C-1.36 -56.13, -5.24 -64.88, -9.87 -74.46 M3.52 -47.61 C1.05 -53.19, -1.45 -59.54, -9.87 -74.46" stroke="#f08c00" stroke-width="2" fill="none"></path></g><g transform="translate(90.580078125 586.0901489257812) rotate(0 -4.38775634765625 -37.699066162109375)"><path d="M-16.87 -45.28 C-15.35 -54.58, -12.86 -64.06, -9.87 -74.46 M-16.87 -45.28 C-15.04 -51.22, -13.25 -58.06, -9.87 -74.46" stroke="#f08c00" stroke-width="2" fill="none"></path></g></g><mask></mask><g stroke-linecap="round"><g transform="translate(73.52618408203125 446.20751953125) rotate(0 1.54217529296875 -61.447479248046875)"><path d="M-0.95 0.92 C-0.34 -19.32, 1.8 -101.08, 2.63 -121.79 M0.76 0.36 C1.26 -20.16, 0.94 -102.9, 1.45 -123.34" stroke="#f08c00" stroke-width="2" fill="none"></path></g><g transform="translate(73.52618408203125 446.20751953125) rotate(0 1.54217529296875 -61.447479248046875)"><path d="M11.46 -95.06 C10.93 -101.97, 9.08 -105.69, 1.45 -123.34 M11.46 -95.06 C9.01 -102.11, 5.17 -110.52, 1.45 -123.34" stroke="#f08c00" stroke-width="2" fill="none"></path></g><g transform="translate(73.52618408203125 446.20751953125) rotate(0 1.54217529296875 -61.447479248046875)"><path d="M-9.06 -95.24 C-5.18 -101.94, -2.62 -105.63, 1.45 -123.34 M-9.06 -95.24 C-6.1 -102.35, -4.54 -110.72, 1.45 -123.34" stroke="#f08c00" stroke-width="2" fill="none"></path></g></g><mask></mask><g stroke-linecap="round"><g transform="translate(70.2039794921875 267.5877990722656) rotate(0 -2.26397705078125 -71.16838073730469)"><path d="M-0.08 -1.08 C-1.02 -24.75, -4.78 -118.29, -5.37 -141.68 M-1.59 0.96 C-2.16 -23.08, -2.72 -119.42, -3.1 -143.45" stroke="#f08c00" stroke-width="2" fill="none"></path></g><g transform="translate(70.2039794921875 267.5877990722656) rotate(0 -2.26397705078125 -71.16838073730469)"><path d="M7.45 -115.37 C2.19 -125.77, 1.72 -131.8, -3.1 -143.45 M7.45 -115.37 C2.92 -125.59, -0.93 -137.68, -3.1 -143.45" stroke="#f08c00" stroke-width="2" fill="none"></path></g><g transform="translate(70.2039794921875 267.5877990722656) rotate(0 -2.26397705078125 -71.16838073730469)"><path d="M-13.07 -115.16 C-11.75 -125.61, -5.66 -131.71, -3.1 -143.45 M-13.07 -115.16 C-9.83 -125.26, -5.9 -137.44, -3.1 -143.45" stroke="#f08c00" stroke-width="2" fill="none"></path></g></g><mask></mask><g transform="translate(40.34259033203125 627.9576416015625) rotate(0 266.3758239746094 20)"><text x="0" y="0" font-family="Virgil, Segoe UI Emoji" font-size="16px" fill="#e03131" text-anchor="start" style="white-space: pre;" direction="ltr" dominant-baseline="text-before-edge">curl --location --request GET '127.0.0.1:8080/redisGet?key=hello' \</text><text x="0" y="20" font-family="Virgil, Segoe UI Emoji" font-size="16px" fill="#e03131" text-anchor="start" style="white-space: pre;" direction="ltr" dominant-baseline="text-before-edge">--header 'Content-Type: text/plain'</text></g><g transform="translate(503.27020263671875 225.85894775390625) rotate(0 57.60795593261719 10)"><text x="0" y="0" font-family="Virgil, Segoe UI Emoji" font-size="16px" fill="#1e1e1e" text-anchor="start" style="white-space: pre;" direction="ltr" dominant-baseline="text-before-edge">set hello world</text></g><g stroke-linecap="round"><g transform="translate(131.42547607421875 628.1732177734375) rotate(0 -7.446868896484375 -57.564727783203125)"><path d="M0.52 -0.44 C-2.07 -19.7, -12.32 -96.69, -14.91 -115.75 M-0.67 -1.72 C-3.47 -20.81, -13.33 -95.94, -15.87 -114.54" stroke="#e03131" stroke-width="2" fill="none"></path></g><g transform="translate(131.42547607421875 628.1732177734375) rotate(0 -7.446868896484375 -57.564727783203125)"><path d="M-1.96 -87.95 C-7.56 -97.31, -12.77 -106.91, -15.87 -114.54 M-1.96 -87.95 C-7.45 -96.42, -10.98 -105.68, -15.87 -114.54" stroke="#e03131" stroke-width="2" fill="none"></path></g><g transform="translate(131.42547607421875 628.1732177734375) rotate(0 -7.446868896484375 -57.564727783203125)"><path d="M-22.3 -85.24 C-20.71 -95.64, -18.74 -106.2, -15.87 -114.54 M-22.3 -85.24 C-21.17 -94.68, -18.07 -104.82, -15.87 -114.54" stroke="#e03131" stroke-width="2" fill="none"></path></g></g><mask></mask><g stroke-linecap="round"><g transform="translate(117.13641357421875 453.7747802734375) rotate(0 -0.159088134765625 -61.70835876464844)"><path d="M-0.99 -1.17 C-0.96 -21.91, -0.28 -103.48, -0.34 -123.74 M0.69 0.83 C0.61 -19.79, -1.35 -101.45, -1.3 -122.38" stroke="#e03131" stroke-width="2" fill="none"></path></g><g transform="translate(117.13641357421875 453.7747802734375) rotate(0 -0.159088134765625 -61.70835876464844)"><path d="M9.31 -94.31 C4.47 -101.66, 3.15 -110.54, -1.3 -122.38 M9.31 -94.31 C5.07 -104.29, 1.21 -113.81, -1.3 -122.38" stroke="#e03131" stroke-width="2" fill="none"></path></g><g transform="translate(117.13641357421875 453.7747802734375) rotate(0 -0.159088134765625 -61.70835876464844)"><path d="M-11.21 -94.06 C-10.77 -101.3, -6.81 -110.25, -1.3 -122.38 M-11.21 -94.06 C-8.1 -104.22, -4.63 -113.84, -1.3 -122.38" stroke="#e03131" stroke-width="2" fill="none"></path></g></g><mask></mask><g stroke-linecap="round"><g transform="translate(107.87860107421875 268.6966552734375) rotate(0 -1.4954833984375 -70.70283508300781)"><path d="M0.96 -0.25 C0.51 -23.68, -1.02 -118.03, -1.84 -141.49 M0.01 -1.43 C-0.58 -24.57, -1.91 -116.37, -2.18 -140" stroke="#e03131" stroke-width="2" fill="none"></path></g><g transform="translate(107.87860107421875 268.6966552734375) rotate(0 -1.4954833984375 -70.70283508300781)"><path d="M8.45 -111.95 C4.28 -120.42, 0.58 -134.46, -2.18 -140 M8.45 -111.95 C4.76 -121.15, 2.2 -129.55, -2.18 -140" stroke="#e03131" stroke-width="2" fill="none"></path></g><g transform="translate(107.87860107421875 268.6966552734375) rotate(0 -1.4954833984375 -70.70283508300781)"><path d="M-12.07 -111.68 C-8.57 -120.42, -4.61 -134.56, -2.18 -140 M-12.07 -111.68 C-9 -121.02, -4.79 -129.51, -2.18 -140" stroke="#e03131" stroke-width="2" fill="none"></path></g></g><mask></mask><g stroke-linecap="round"><g transform="translate(265.36297607421875 95.0325927734375) rotate(0 5.88555908203125 51.149658203125)"><path d="M-0.4 1.19 C1.52 17.89, 9.09 84.56, 11.09 101.22 M1.59 0.77 C3.93 18.1, 11.92 85.34, 13.45 102.19" stroke="#e03131" stroke-width="2" fill="none"></path></g><g transform="translate(265.36297607421875 95.0325927734375) rotate(0 5.88555908203125 51.149658203125)"><path d="M0.24 75.25 C5.95 81.31, 5.67 89.31, 13.45 102.19 M0.24 75.25 C3.41 80.91, 5.3 86.24, 13.45 102.19" stroke="#e03131" stroke-width="2" fill="none"></path></g><g transform="translate(265.36297607421875 95.0325927734375) rotate(0 5.88555908203125 51.149658203125)"><path d="M20.65 73.07 C20.96 79.63, 15.27 88.21, 13.45 102.19 M20.65 73.07 C19.64 79.29, 17.37 85.06, 13.45 102.19" stroke="#e03131" stroke-width="2" fill="none"></path></g></g><mask></mask><g stroke-linecap="round"><g transform="translate(291.61297607421875 280.8216552734375) rotate(0 74 10.0078125)"><path d="M1.15 -1.14 C25.84 2.07, 124.61 15.91, 148.95 19.51 M0.3 0.88 C24.84 4.22, 123.61 17.88, 148.5 20.78" stroke="#e03131" stroke-width="2" fill="none"></path></g><g transform="translate(291.61297607421875 280.8216552734375) rotate(0 74 10.0078125)"><path d="M119.23 27.35 C128.05 26.24, 139.84 20.87, 148.5 20.78 M119.23 27.35 C128.27 24.49, 138.57 22.3, 148.5 20.78" stroke="#e03131" stroke-width="2" fill="none"></path></g><g transform="translate(291.61297607421875 280.8216552734375) rotate(0 74 10.0078125)"><path d="M121.85 6.99 C129.76 13.38, 140.59 15.48, 148.5 20.78 M121.85 6.99 C130.17 10.9, 139.6 15.5, 148.5 20.78" stroke="#e03131" stroke-width="2" fill="none"></path></g></g><mask></mask><g transform="translate(38.0079345703125 539.7911376953125) rotate(0 16.93598175048828 10)"><text x="0" y="0" font-family="Virgil, Segoe UI Emoji" font-size="16px" fill="#1e1e1e" text-anchor="start" style="white-space: pre;" direction="ltr" dominant-baseline="text-before-edge">http</text></g><g transform="translate(31.07750701904297 364.785400390625) rotate(0 15.407981872558594 10)"><text x="0" y="0" font-family="Virgil, Segoe UI Emoji" font-size="16px" fill="#1e1e1e" text-anchor="start" style="white-space: pre;" direction="ltr" dominant-baseline="text-before-edge">grpc</text></g><g transform="translate(21.986244201660156 152.6966552734375) rotate(0 15.407981872558594 10)"><text x="0" y="0" font-family="Virgil, Segoe UI Emoji" font-size="16px" fill="#1e1e1e" text-anchor="start" style="white-space: pre;" direction="ltr" dominant-baseline="text-before-edge">grpc</text></g><g transform="translate(296.98624420166016 134.6966552734375) rotate(0 15.407981872558594 10)"><text x="0" y="0" font-family="Virgil, Segoe UI Emoji" font-size="16px" fill="#1e1e1e" text-anchor="start" style="white-space: pre;" direction="ltr" dominant-baseline="text-before-edge">grpc</text></g><g transform="translate(367.98624420166016 259.6966552734375) rotate(0 18.46398162841797 10)"><text x="0" y="0" font-family="Virgil, Segoe UI Emoji" font-size="16px" fill="#1e1e1e" text-anchor="start" style="white-space: pre;" direction="ltr" dominant-baseline="text-before-edge">redis</text></g></svg>